<?xml version="1.0" ?><svg data-name="Medical Gloves-Gloves-Medical-Hygiene-Surgery" id="Medical_Gloves-Gloves-Medical-Hygiene-Surgery" viewBox="0 0 64 64" xmlns="http://www.w3.org/2000/svg"><path d="M52,9a3,3,0,0,0-1,.171V8a3,3,0,0,0-4-2.829V5a3,3,0,0,0-6,0v.171A3,3,0,0,0,37,8v7.171A3,3,0,0,0,33,18V29a1,1,0,0,0,.143.515L36,34.277v2.907a2.982,2.982,0,0,0,0,5.632V61a1,1,0,0,0,1,1H51a1,1,0,0,0,1-1V42.816a2.982,2.982,0,0,0,0-5.632V34.277l2.857-4.762A1,1,0,0,0,55,29V12A3,3,0,0,0,52,9ZM50,60H38V43H50Zm1-19H37a1,1,0,0,1,0-2H51a1,1,0,0,1,0,2Zm2-12.277-2.857,4.762A1,1,0,0,0,50,34v3H38V34a1,1,0,0,0-.143-.515L35,28.723V18a1,1,0,0,1,2,0v4a1,1,0,0,0,2,0V8a1,1,0,0,1,2,0V18a1,1,0,0,0,2,0V5a1,1,0,0,1,2,0V18a1,1,0,0,0,2,0V8a1,1,0,0,1,2,0V18a1,1,0,0,0,2,0V12a1,1,0,0,1,2,0Z"/><path d="M28,15a3,3,0,0,0-1,.17V8a3,3,0,0,0-4-2.83V5a3,3,0,0,0-6,0v.17A3,3,0,0,0,13,8V9.17A3,3,0,0,0,9,12V29a1,1,0,0,0,.14.51L12,34.28v2.9a2.988,2.988,0,0,0,0,5.64V61a1,1,0,0,0,1,1H27a1,1,0,0,0,1-1V42.82a2.988,2.988,0,0,0,0-5.64v-2.9l2.86-4.77A1,1,0,0,0,31,29V18A3.009,3.009,0,0,0,28,15ZM26,60H14V43H26Zm1-19H13a1,1,0,0,1,0-2H27a1,1,0,0,1,0,2Zm2-12.28-2.86,4.77A1,1,0,0,0,26,34v3H14V34a1,1,0,0,0-.14-.51L11,28.72V12a1,1,0,0,1,2,0v6a1,1,0,0,0,2,0V8a1,1,0,0,1,2,0V18a1,1,0,0,0,2,0V5a1,1,0,0,1,2,0V18a1,1,0,0,0,2,0V8a1,1,0,0,1,2,0V22a1,1,0,0,0,2,0V18a1,1,0,0,1,2,0Z"/></svg>