<?xml version="1.0" ?><svg viewBox="0 0 64 64" xmlns="http://www.w3.org/2000/svg"><g data-name="Medical Mask-Mask-Pollution-Medical-Security" id="Medical_Mask-Mask-Pollution-Medical-Security"><rect height="2" width="2" x="27" y="19"/><rect height="2" width="2" x="35" y="19"/><path d="M53,50v-.68a13.075,13.075,0,0,0-8.44-12.18L37,34.31v-.49a2.993,2.993,0,0,0,1.95-2.32A10.857,10.857,0,0,0,42.94,24H43a3.989,3.989,0,0,0,.38-7.96l1.33-1.33A1.033,1.033,0,0,0,45,14V9a7.008,7.008,0,0,0-7-7H16a.984.984,0,0,0-.88.53.963.963,0,0,0,.05,1.02l3.61,5.42L16.2,12.4a1,1,0,0,0,.29,1.46l3.7,2.22A4,4,0,0,0,21,24h.05a10.919,10.919,0,0,0,3.17,6.78c.26.25.55.48.83.71A3.022,3.022,0,0,0,27,33.82v.49l-7.56,2.83A13.075,13.075,0,0,0,11,49.32V50a2.006,2.006,0,0,0-2,2v2a2.006,2.006,0,0,0,2,2v5a1,1,0,0,0,1,1H52a1,1,0,0,0,1-1V56a2.006,2.006,0,0,0,2-2V52A2.006,2.006,0,0,0,53,50ZM37,31a1,1,0,0,1-1,1H28a1,1,0,0,1-1-1V24.75A20.113,20.113,0,0,1,32,24a20.113,20.113,0,0,1,5,.75Zm-2,3v1a3,3,0,0,1-6,0V34Zm6-11a8.877,8.877,0,0,1-2,5.65V24.27l2-3.5Zm4-3a2.006,2.006,0,0,1-2,2V18A2.006,2.006,0,0,1,45,20ZM21,22a2,2,0,0,1,0-4Zm-2.53-9.29L20.8,9.6a.992.992,0,0,0,.03-1.15L17.87,4H38a5,5,0,0,1,5,5v4.59L41.59,15H40.47a2.988,2.988,0,0,1-2.68-1.66l-.9-1.79a.994.994,0,0,0-.68-.53A1.492,1.492,0,0,0,36,11a1,1,0,0,0-.62.22l-2.27,1.81A9.027,9.027,0,0,1,27.49,15H22.28ZM25,28.65A8.938,8.938,0,0,1,23,23V20.77l2,3.5Zm1.48-5.83L23.15,17h4.34a11.051,11.051,0,0,0,6.87-2.41l1.3-1.04.34.69A4.979,4.979,0,0,0,40.47,17h.38l-3.33,5.82A21.825,21.825,0,0,0,32,22,21.825,21.825,0,0,0,26.48,22.82ZM19,60H13V56h6Zm0-6H11V52h8Zm24,6H21V47H19v3H13v-.68a11.051,11.051,0,0,1,7.14-10.3l7.07-2.66a4.972,4.972,0,0,0,9.58,0l7.07,2.66A11.051,11.051,0,0,1,51,49.32V50H45V47H43Zm8,0H45V56h6Zm2-6H45V52h8Z"/></g></svg>